<svg xmlns="http://www.w3.org/2000/svg" version="1.1" xmlns:xlink="http://www.w3.org/1999/xlink" xmlns:svgjs="http://svgjs.dev/svgjs" width="1500" height="518" viewBox="0 0 1500 518"><g transform="matrix(1,0,0,1,-0.9090909090909918,-0.04385835205977173)"><svg viewBox="0 0 396 137" data-background-color="#dbefed" preserveAspectRatio="xMidYMid meet" height="518" width="1500" xmlns="http://www.w3.org/2000/svg" xmlns:xlink="http://www.w3.org/1999/xlink"><g id="tight-bounds" transform="matrix(1,0,0,1,0.2400000000000091,0.011599602764846395)"><svg viewBox="0 0 395.52 136.97651820746967" height="136.97651820746967" width="395.52"><g><svg viewBox="0 0 660.1191824860479 228.61252836493765" height="136.97651820746967" width="395.52"><g transform="matrix(1,0,0,1,264.5991824860479,56.73171306023997)"><svg viewBox="0 0 395.52 115.14910224445771" height="115.14910224445771" width="395.52"><g id="textblocktransform"><svg viewBox="0 0 395.52 115.14910224445771" height="115.14910224445771" width="395.52" id="textblock"><g><svg viewBox="0 0 395.52 76.21836637589215" height="76.21836637589215" width="395.52"><g transform="matrix(1,0,0,1,0,0)"><svg width="395.52" viewBox="2.15 -33.33 175.12 33.75" height="76.21836637589215" data-palette-color="#cb1106"><g class="wordmark-text-0" data-fill-palette-color="primary" id="text-0"><path d="M8.72 0.42L8.72 0.42Q7.12 0.42 5.3-0.19 3.47-0.8 2.15-2.22L2.15-2.22 3.19-6.32Q4.17-4.69 5.69-3.73 7.22-2.78 8.96-2.78L8.96-2.78Q10.63-2.78 11.46-3.59 12.29-4.41 12.29-5.59L12.29-5.59Q12.29-6.94 11.41-7.57 10.52-8.19 9.83-8.44L9.83-8.44 7.01-9.51Q6.25-9.83 5.17-10.43 4.1-11.04 3.3-12.19 2.5-13.33 2.5-15.17L2.5-15.17Q2.5-16.84 3.3-18.23 4.1-19.62 5.56-20.43 7.01-21.25 8.99-21.25L8.99-21.25Q10.56-21.25 12.26-20.69 13.96-20.14 15.14-18.82L15.14-18.82 14.1-14.72Q13.26-16.25 11.84-17.15 10.42-18.06 8.89-18.06L8.89-18.06Q7.47-18.06 6.65-17.26 5.83-16.46 5.83-15.42L5.83-15.42Q5.83-14.58 6.39-13.92 6.94-13.26 8.06-12.85L8.06-12.85 10.87-11.77Q11.63-11.49 12.76-10.87 13.89-10.24 14.76-9.06 15.63-7.88 15.63-5.87L15.63-5.87Q15.63-3.06 13.66-1.32 11.7 0.42 8.72 0.42ZM28.99 0.42L28.99 0.42Q26.8 0.42 24.89-0.68 22.98-1.77 21.8-3.85 20.62-5.94 20.62-8.85L20.62-8.85 20.62-20.83 24.37-20.83 24.37-9.38Q24.37-6.91 25.85-5.02 27.32-3.13 30-3.13L30-3.13Q32.19-3.13 33.9-4.7 35.62-6.28 35.62-9.27L35.62-9.27 35.62-20.83 39.37-20.83 39.37 0 35.9 0 35.9-3.37Q34.75-1.53 32.93-0.56 31.11 0.42 28.99 0.42ZM49.79 0L46.04 0 46.04-33.33 49.79-33.33 49.79 0ZM65.37 0.28L65.37 0.28Q62.53 0.28 60.17-1.16 57.81-2.6 56.4-5.03 54.99-7.47 54.99-10.42L54.99-10.42Q54.99-13.37 56.4-15.8 57.81-18.23 60.17-19.67 62.53-21.11 65.37-21.11L65.37-21.11Q67.53-21.11 69.42-20.31 71.31-19.51 72.7-18.09L72.7-18.09 72.7-20.83 76.17-20.83 76.17 0 72.7 0 72.7-2.74Q71.31-1.35 69.42-0.54 67.53 0.28 65.37 0.28ZM65.86-3.13L65.86-3.13Q67.84-3.13 69.45-4.11 71.07-5.1 72.02-6.75 72.98-8.4 72.98-10.42L72.98-10.42Q72.98-12.43 72.02-14.08 71.07-15.73 69.45-16.72 67.84-17.71 65.86-17.71L65.86-17.71Q63.88-17.71 62.27-16.72 60.65-15.73 59.7-14.08 58.74-12.43 58.74-10.42L58.74-10.42Q58.74-8.4 59.7-6.75 60.65-5.1 62.27-4.11 63.88-3.13 65.86-3.13ZM86.59 0L82.84 0 82.84-20.83 86.59-20.83 86.59 0ZM84.71-24.58L84.71-24.58Q83.67-24.58 82.94-25.31 82.21-26.04 82.21-27.08L82.21-27.08Q82.21-28.16 82.94-28.87 83.67-29.58 84.71-29.58L84.71-29.58Q85.79-29.58 86.5-28.87 87.21-28.16 87.21-27.08L87.21-27.08Q87.21-26.04 86.5-25.31 85.79-24.58 84.71-24.58ZM97 0L93.25 0 93.25-20.83 96.72-20.83 96.72-17.85Q97.87-19.55 99.62-20.4 101.38-21.25 103.32-21.25L103.32-21.25Q105.44-21.25 107.21-20.26 108.98-19.27 110.06-17.5L110.06-17.5Q111.27-19.38 113.2-20.31 115.13-21.25 117.28-21.25L117.28-21.25Q119.64-21.25 121.6-20.14 123.56-19.03 124.73-17.03 125.89-15.03 125.89-12.33L125.89-12.33 125.89 0 122.14 0 122.14-11.88Q122.14-14.72 120.53-16.2 118.91-17.67 116.79-17.67L116.79-17.67Q115.47-17.67 114.24-17.08 113.01-16.49 112.23-15.24 111.45-13.99 111.45-11.98L111.45-11.98 111.45 0 107.7 0 107.7-11.88Q107.7-13.85 106.91-15.14 106.13-16.42 104.9-17.07 103.67-17.71 102.35-17.71L102.35-17.71Q101.06-17.71 99.83-17.12 98.6-16.53 97.8-15.28 97-14.03 97-11.98L97-11.98 97 0ZM141.06 0.28L141.06 0.28Q138.21 0.28 135.85-1.16 133.49-2.6 132.09-5.03 130.68-7.47 130.68-10.42L130.68-10.42Q130.68-13.37 132.09-15.8 133.49-18.23 135.85-19.67 138.21-21.11 141.06-21.11L141.06-21.11Q143.21-21.11 145.11-20.31 147-19.51 148.39-18.09L148.39-18.09 148.39-20.83 151.86-20.83 151.86 0 148.39 0 148.39-2.74Q147-1.35 145.11-0.54 143.21 0.28 141.06 0.28ZM141.55-3.13L141.55-3.13Q143.53-3.13 145.14-4.11 146.76-5.1 147.71-6.75 148.67-8.4 148.67-10.42L148.67-10.42Q148.67-12.43 147.71-14.08 146.76-15.73 145.14-16.72 143.53-17.71 141.55-17.71L141.55-17.71Q139.57-17.71 137.95-16.72 136.34-15.73 135.38-14.08 134.43-12.43 134.43-10.42L134.43-10.42Q134.43-8.4 135.38-6.75 136.34-5.1 137.95-4.11 139.57-3.13 141.55-3.13ZM162.27 0L158.52 0 158.52-20.83 162-20.83 162-17.47Q163.14-19.31 164.97-20.28 166.79-21.25 168.91-21.25L168.91-21.25Q171.13-21.25 173.02-20.16 174.91-19.06 176.09-17 177.27-14.93 177.27-11.98L177.27-11.98 177.27 0 173.52 0 173.52-11.46Q173.52-13.92 172.05-15.82 170.57-17.71 167.9-17.71L167.9-17.71Q165.71-17.71 163.99-16.13 162.27-14.55 162.27-11.56L162.27-11.56 162.27 0Z" fill="#cb1106" data-fill-palette-color="primary"></path></g></svg></g></svg></g><g transform="matrix(1,0,0,1,0,94.21169343644726)"><svg viewBox="0 0 232.209792 20.937408808010446" height="20.937408808010446" width="232.209792"><g transform="matrix(1,0,0,1,0,0)"><svg width="232.209792" viewBox="0.66 -39.5 504.66999999999996 45.51" height="20.937408808010446" data-palette-color="#cb1106"><path d="M14.06-24.93L14.06 0 5.79 0 5.79-24.93 0.66-24.93 0.66-28.2 5.79-28.2 5.79-38.57 14.06-38.57 14.06-28.2 22.61-28.2 22.61-24.93 14.06-24.93ZM31.98-13.38L31.98-13.38Q33.49-13.04 35.01-12.84 36.52-12.65 38.06-12.65L38.06-12.65Q39.67-12.65 41.05-12.95 42.43-13.26 43.44-13.98 44.46-14.7 45.04-15.89 45.63-17.09 45.63-18.87L45.63-18.87Q45.63-20.31 45.24-21.51 44.85-22.71 44.08-23.56 43.31-24.41 42.19-24.89 41.06-25.37 39.57-25.37L39.57-25.37Q38.18-25.37 37.07-24.85 35.96-24.34 35.12-23.47 34.27-22.61 33.68-21.46 33.08-20.31 32.69-19.07 32.3-17.82 32.13-16.55 31.96-15.28 31.96-14.16L31.96-14.16Q31.96-13.96 31.96-13.77 31.96-13.57 31.98-13.38ZM52.32-18.95L52.32-18.95Q52.32-17.21 51.76-15.86 51.19-14.5 50.23-13.48 49.27-12.45 48-11.74 46.73-11.04 45.29-10.58 43.85-10.13 42.32-9.94 40.79-9.74 39.35-9.74L39.35-9.74Q37.52-9.74 35.74-10 33.96-10.25 32.22-10.82L32.22-10.82Q32.49-9.2 33.08-7.75 33.66-6.3 34.64-5.21 35.62-4.13 37.05-3.49 38.47-2.86 40.43-2.86L40.43-2.86Q41.72-2.86 42.89-3.25 44.06-3.64 45.04-4.35 46.02-5.05 46.76-6.03 47.51-7.01 47.97-8.2L47.97-8.2 51.54-6.88Q50.73-4.96 49.33-3.55 47.92-2.15 46.15-1.23 44.38-0.32 42.39 0.12 40.4 0.56 38.45 0.56L38.45 0.56Q35.23 0.56 32.49-0.52 29.76-1.61 27.78-3.56 25.8-5.52 24.68-8.23 23.56-10.94 23.56-14.16L23.56-14.16Q23.56-17.38 24.68-20.09 25.8-22.8 27.78-24.76 29.76-26.71 32.49-27.8 35.23-28.88 38.45-28.88L38.45-28.88Q40.01-28.88 41.65-28.66 43.28-28.44 44.82-27.97 46.36-27.49 47.73-26.73 49.09-25.98 50.11-24.87 51.12-23.75 51.72-22.29 52.32-20.83 52.32-18.95ZM83.49-21.22L83.49-21.22 79.93-19.8Q79.07-22.49 77.07-23.93 75.07-25.37 72.26-25.37L72.26-25.37Q70.75-25.37 69.56-24.89 68.38-24.41 67.49-23.58 66.6-22.75 65.97-21.66 65.35-20.56 64.96-19.31 64.57-18.07 64.4-16.74 64.23-15.41 64.23-14.16L64.23-14.16Q64.23-12.82 64.37-11.45 64.52-10.08 64.88-8.83 65.23-7.57 65.82-6.48 66.4-5.4 67.29-4.59 68.18-3.78 69.42-3.32 70.65-2.86 72.26-2.86L72.26-2.86Q73.55-2.86 74.73-3.25 75.9-3.64 76.87-4.35 77.85-5.05 78.61-6.03 79.37-7.01 79.8-8.2L79.8-8.2 83.39-6.88Q82.59-4.96 81.26-3.55 79.93-2.15 78.24-1.23 76.56-0.32 74.63 0.12 72.7 0.56 70.72 0.56L70.72 0.56Q67.52 0.56 64.79-0.52 62.06-1.61 60.07-3.58 58.08-5.54 56.95-8.24 55.83-10.94 55.83-14.16L55.83-14.16Q55.83-17.41 56.94-20.12 58.05-22.83 60.03-24.78 62.01-26.73 64.74-27.81 67.48-28.88 70.72-28.88L70.72-28.88Q72.77-28.88 74.73-28.43 76.68-27.98 78.35-27.04 80.02-26.1 81.35-24.66 82.69-23.22 83.49-21.22ZM117.2-16.16L117.2-16.16Q117.2-13.31 116.51-10.21 115.81-7.1 114.57-4.13 113.32-1.15 111.59 1.48 109.86 4.1 107.78 6.01L107.78 6.01 104.68 4.32Q105.34 3.1 105.93 1.59 106.51 0.07 106.99-1.62 107.46-3.32 107.84-5.13 108.22-6.93 108.48-8.7 108.73-10.47 108.87-12.15 109-13.82 109-15.26L109-15.26Q109-16.21 108.93-17.3 108.85-18.38 108.62-19.47 108.39-20.56 108-21.56 107.61-22.56 106.96-23.32 106.32-24.07 105.4-24.54 104.48-25 103.24-25L103.24-25Q102.02-25 101.07-24.45 100.11-23.9 99.38-23.01 98.65-22.12 98.12-20.97 97.6-19.82 97.27-18.62 96.94-17.41 96.79-16.24 96.65-15.06 96.65-14.14L96.65-14.14 96.65 0 88.37 0 88.37-38.57 96.62-38.57 96.62-24.05Q98.21-26.37 100.52-27.62 102.82-28.88 105.63-28.88L105.63-28.88Q108.56-28.88 110.73-27.93 112.91-26.98 114.35-25.28 115.79-23.58 116.5-21.25 117.2-18.92 117.2-16.16ZM131.31-35.01L131.31-35.01Q131.31-34.08 130.96-33.25 130.61-32.42 129.99-31.81 129.38-31.2 128.55-30.85 127.72-30.49 126.8-30.49L126.8-30.49Q125.87-30.49 125.05-30.85 124.23-31.2 123.62-31.81 123.01-32.42 122.66-33.25 122.3-34.08 122.3-35.01L122.3-35.01Q122.3-35.94 122.66-36.76 123.01-37.57 123.62-38.18 124.23-38.79 125.05-39.15 125.87-39.5 126.8-39.5L126.8-39.5Q127.72-39.5 128.55-39.15 129.38-38.79 129.99-38.18 130.61-37.57 130.96-36.76 131.31-35.94 131.31-35.01ZM130.95-28.17L130.95 0 122.67 0 122.67-28.17 130.95-28.17ZM144.64-13.38L144.64-13.38Q146.15-13.04 147.67-12.84 149.18-12.65 150.72-12.65L150.72-12.65Q152.33-12.65 153.71-12.95 155.09-13.26 156.1-13.98 157.12-14.7 157.7-15.89 158.29-17.09 158.29-18.87L158.29-18.87Q158.29-20.31 157.9-21.51 157.51-22.71 156.74-23.56 155.97-24.41 154.85-24.89 153.72-25.37 152.23-25.37L152.23-25.37Q150.84-25.37 149.73-24.85 148.62-24.34 147.78-23.47 146.94-22.61 146.34-21.46 145.74-20.31 145.35-19.07 144.96-17.82 144.79-16.55 144.62-15.28 144.62-14.16L144.62-14.16Q144.62-13.96 144.62-13.77 144.62-13.57 144.64-13.38ZM164.98-18.95L164.98-18.95Q164.98-17.21 164.42-15.86 163.85-14.5 162.89-13.48 161.93-12.45 160.66-11.74 159.39-11.04 157.95-10.58 156.51-10.13 154.98-9.94 153.45-9.74 152.01-9.74L152.01-9.74Q150.18-9.74 148.4-10 146.62-10.25 144.88-10.82L144.88-10.82Q145.15-9.2 145.74-7.75 146.33-6.3 147.3-5.21 148.28-4.13 149.71-3.49 151.13-2.86 153.09-2.86L153.09-2.86Q154.38-2.86 155.55-3.25 156.73-3.64 157.7-4.35 158.68-5.05 159.42-6.03 160.17-7.01 160.63-8.2L160.63-8.2 164.2-6.88Q163.39-4.96 161.99-3.55 160.58-2.15 158.81-1.23 157.04-0.32 155.05 0.12 153.06 0.56 151.11 0.56L151.11 0.56Q147.89 0.56 145.15-0.52 142.42-1.61 140.44-3.56 138.46-5.52 137.34-8.23 136.22-10.94 136.22-14.16L136.22-14.16Q136.22-17.38 137.34-20.09 138.46-22.8 140.44-24.76 142.42-26.71 145.15-27.8 147.89-28.88 151.11-28.88L151.11-28.88Q152.67-28.88 154.31-28.66 155.94-28.44 157.48-27.97 159.02-27.49 160.39-26.73 161.76-25.98 162.77-24.87 163.78-23.75 164.38-22.29 164.98-20.83 164.98-18.95ZM214.07-14.16L214.07-14.16Q214.07-11.96 213.48-10.03 212.9-8.11 211.86-6.47 210.82-4.83 209.36-3.53 207.89-2.22 206.15-1.32 204.4-0.42 202.41 0.07 200.42 0.56 198.32 0.56L198.32 0.56Q196.22 0.56 194.25 0.07 192.27-0.42 190.52-1.32 188.78-2.22 187.31-3.53 185.85-4.83 184.81-6.47 183.77-8.11 183.19-10.05 182.6-11.99 182.6-14.16L182.6-14.16Q182.6-16.33 183.19-18.27 183.77-20.21 184.81-21.85 185.85-23.49 187.31-24.79 188.78-26.1 190.52-27 192.27-27.91 194.25-28.39 196.22-28.88 198.32-28.88L198.32-28.88Q200.42-28.88 202.41-28.39 204.4-27.91 206.15-27 207.89-26.1 209.36-24.79 210.82-23.49 211.86-21.85 212.9-20.21 213.48-18.27 214.07-16.33 214.07-14.16ZM205.67-14.16L205.67-14.16Q205.67-15.33 205.54-16.64 205.4-17.94 205.09-19.2 204.77-20.46 204.22-21.62 203.67-22.78 202.86-23.65 202.06-24.51 200.93-25.04 199.81-25.56 198.32-25.56L198.32-25.56Q196.91-25.56 195.81-25.02 194.71-24.49 193.89-23.6 193.07-22.71 192.52-21.53 191.97-20.36 191.63-19.1 191.29-17.85 191.14-16.56 191-15.28 191-14.16L191-14.16Q191-13.04 191.14-11.76 191.29-10.47 191.63-9.2 191.97-7.93 192.52-6.77 193.07-5.62 193.89-4.72 194.71-3.83 195.81-3.3 196.91-2.76 198.32-2.76L198.32-2.76Q199.79-2.76 200.91-3.28 202.03-3.81 202.85-4.69 203.67-5.57 204.21-6.71 204.74-7.86 205.07-9.13 205.4-10.4 205.54-11.69 205.67-12.99 205.67-14.16ZM248.1-16.16L248.1-16.16Q248.1-13.31 247.4-10.21 246.71-7.1 245.46-4.13 244.22-1.15 242.48 1.48 240.75 4.1 238.68 6.01L238.68 6.01 235.58 4.32Q236.23 3.1 236.82 1.59 237.41 0.07 237.88-1.62 238.36-3.32 238.74-5.13 239.12-6.93 239.37-8.7 239.63-10.47 239.76-12.15 239.9-13.82 239.9-15.26L239.9-15.26Q239.9-16.21 239.82-17.3 239.75-18.38 239.52-19.47 239.29-20.56 238.9-21.56 238.51-22.56 237.86-23.32 237.21-24.07 236.3-24.54 235.38-25 234.14-25L234.14-25Q232.91-25 231.96-24.45 231.01-23.9 230.28-23.01 229.55-22.12 229.02-20.97 228.5-19.82 228.17-18.62 227.84-17.41 227.69-16.24 227.54-15.06 227.54-14.14L227.54-14.14 227.54 0 219.27 0 219.27-28.2 222.44-28.2 226.23-21.63Q226.91-23.27 227.93-24.61 228.96-25.95 230.25-26.9 231.55-27.86 233.12-28.37 234.7-28.88 236.53-28.88L236.53-28.88Q239.46-28.88 241.63-27.93 243.8-26.98 245.24-25.28 246.68-23.58 247.39-21.25 248.1-18.92 248.1-16.16ZM278.32-24.93L278.32 0 270.04 0 270.04-24.93 264.92-24.93 264.92-28.2 270.04-28.2 270.04-38.57 278.32-38.57 278.32-28.2 286.86-28.2 286.86-24.93 278.32-24.93ZM319.53-16.16L319.53-16.16Q319.53-13.31 318.83-10.21 318.14-7.1 316.89-4.13 315.65-1.15 313.91 1.48 312.18 4.1 310.1 6.01L310.1 6.01 307 4.32Q307.66 3.1 308.25 1.59 308.83 0.07 309.31-1.62 309.79-3.32 310.17-5.13 310.54-6.93 310.8-8.7 311.06-10.47 311.19-12.15 311.33-13.82 311.33-15.26L311.33-15.26Q311.33-16.21 311.25-17.3 311.18-18.38 310.95-19.47 310.71-20.56 310.32-21.56 309.93-22.56 309.29-23.32 308.64-24.07 307.72-24.54 306.81-25 305.56-25L305.56-25Q304.34-25 303.39-24.45 302.44-23.9 301.71-23.01 300.97-22.12 300.45-20.97 299.92-19.82 299.59-18.62 299.26-17.41 299.12-16.24 298.97-15.06 298.97-14.14L298.97-14.14 298.97 0 290.7 0 290.7-38.57 298.95-38.57 298.95-24.05Q300.53-26.37 302.84-27.62 305.15-28.88 307.96-28.88L307.96-28.88Q310.89-28.88 313.06-27.93 315.23-26.98 316.67-25.28 318.11-23.58 318.82-21.25 319.53-18.92 319.53-16.16ZM331.76-13.38L331.76-13.38Q333.27-13.04 334.78-12.84 336.3-12.65 337.84-12.65L337.84-12.65Q339.45-12.65 340.83-12.95 342.21-13.26 343.22-13.98 344.23-14.7 344.82-15.89 345.4-17.09 345.4-18.87L345.4-18.87Q345.4-20.31 345.01-21.51 344.62-22.71 343.85-23.56 343.09-24.41 341.96-24.89 340.84-25.37 339.35-25.37L339.35-25.37Q337.96-25.37 336.85-24.85 335.74-24.34 334.89-23.47 334.05-22.61 333.45-21.46 332.86-20.31 332.47-19.07 332.07-17.82 331.9-16.55 331.73-15.28 331.73-14.16L331.73-14.16Q331.73-13.96 331.73-13.77 331.73-13.57 331.76-13.38ZM352.09-18.95L352.09-18.95Q352.09-17.21 351.53-15.86 350.97-14.5 350.01-13.48 349.04-12.45 347.77-11.74 346.5-11.04 345.06-10.58 343.62-10.13 342.1-9.94 340.57-9.74 339.13-9.74L339.13-9.74Q337.3-9.74 335.52-10 333.73-10.25 332-10.82L332-10.82Q332.27-9.2 332.86-7.75 333.44-6.3 334.42-5.21 335.39-4.13 336.82-3.49 338.25-2.86 340.2-2.86L340.2-2.86Q341.5-2.86 342.67-3.25 343.84-3.64 344.82-4.35 345.8-5.05 346.54-6.03 347.28-7.01 347.75-8.2L347.75-8.2 351.31-6.88Q350.51-4.96 349.1-3.55 347.7-2.15 345.93-1.23 344.16-0.32 342.17 0.12 340.18 0.56 338.23 0.56L338.23 0.56Q335 0.56 332.27-0.52 329.54-1.61 327.56-3.56 325.58-5.52 324.46-8.23 323.33-10.94 323.33-14.16L323.33-14.16Q323.33-17.38 324.46-20.09 325.58-22.8 327.56-24.76 329.54-26.71 332.27-27.8 335-28.88 338.23-28.88L338.23-28.88Q339.79-28.88 341.43-28.66 343.06-28.44 344.6-27.97 346.14-27.49 347.5-26.73 348.87-25.98 349.88-24.87 350.9-23.75 351.5-22.29 352.09-20.83 352.09-18.95ZM395.38-25.71L395.38-25.71 390.74-18.02Q390.44-18.99 389.98-20.21 389.52-21.44 388.83-22.5 388.15-23.56 387.2-24.28 386.24-25 385-25L385-25Q383.85-25 383.01-24.41 382.17-23.83 381.58-22.89 381-21.95 380.62-20.76 380.24-19.58 380.03-18.37 379.82-17.16 379.75-16.05 379.68-14.94 379.68-14.14L379.68-14.14 379.68 0 371.4 0 371.4-28.2 374.57-28.2 377.92-21.63Q378.6-23.22 379.48-24.55 380.36-25.88 381.51-26.84 382.66-27.81 384.11-28.34 385.56-28.88 387.39-28.88L387.39-28.88Q388.34-28.88 389.52-28.72 390.69-28.56 391.81-28.19 392.93-27.81 393.89-27.2 394.84-26.59 395.38-25.71ZM426.65-28.2L426.65 0 418.4 0 418.4-3.37Q416.93-1.37 414.87-0.4 412.8 0.56 410.34 0.56L410.34 0.56Q407.12 0.56 404.58-0.59 402.04-1.73 400.28-3.72 398.52-5.71 397.59-8.4 396.67-11.08 396.67-14.16L396.67-14.16Q396.67-17.24 397.59-19.92 398.52-22.61 400.28-24.6 402.04-26.59 404.58-27.73 407.12-28.88 410.34-28.88L410.34-28.88Q411.97-28.88 413.45-28.39 414.93-27.91 416.16-27.01 417.39-26.12 418.33-24.87 419.27-23.61 419.81-22.07L419.81-22.07 423.47-28.2 426.65-28.2ZM418.35-14.16L418.35-14.16Q418.35-15.26 418.24-16.48 418.13-17.7 417.86-18.9 417.59-20.09 417.11-21.18 416.64-22.27 415.89-23.11 415.15-23.95 414.1-24.44 413.05-24.93 411.66-24.93L411.66-24.93Q410.27-24.93 409.24-24.43 408.21-23.93 407.48-23.08 406.75-22.24 406.27-21.14 405.8-20.04 405.53-18.85 405.26-17.65 405.15-16.44 405.04-15.23 405.04-14.16L405.04-14.16Q405.04-13.09 405.15-11.87 405.26-10.64 405.53-9.45 405.8-8.25 406.27-7.15 406.75-6.05 407.48-5.21 408.21-4.37 409.24-3.87 410.27-3.37 411.66-3.37L411.66-3.37Q412.93-3.37 413.92-3.89 414.9-4.42 415.65-5.3 416.39-6.18 416.91-7.3 417.42-8.42 417.74-9.62 418.05-10.82 418.2-12 418.35-13.18 418.35-14.16ZM442.2-35.01L442.2-35.01Q442.2-34.08 441.84-33.25 441.49-32.42 440.88-31.81 440.27-31.2 439.44-30.85 438.61-30.49 437.68-30.49L437.68-30.49Q436.75-30.49 435.93-30.85 435.12-31.2 434.51-31.81 433.9-32.42 433.54-33.25 433.19-34.08 433.19-35.01L433.19-35.01Q433.19-35.94 433.54-36.76 433.9-37.57 434.51-38.18 435.12-38.79 435.93-39.15 436.75-39.5 437.68-39.5L437.68-39.5Q438.61-39.5 439.44-39.15 440.27-38.79 440.88-38.18 441.49-37.57 441.84-36.76 442.2-35.94 442.2-35.01ZM441.83-28.17L441.83 0 433.55 0 433.55-28.17 441.83-28.17ZM473-9.01L473-9.01Q473-7.15 472.47-5.71 471.93-4.27 471-3.21 470.07-2.15 468.81-1.43 467.54-0.71 466.08-0.27 464.63 0.17 463.04 0.37 461.46 0.56 459.89 0.56L459.89 0.56Q457.79 0.56 456.18 0.29 454.57 0.02 453.11-0.57 451.64-1.17 450.19-2.12 448.74-3.08 446.95-4.44L446.95-4.44 451.76-8.37Q452.42-7.13 453.51-6.12 454.6-5.1 455.77-4.37 456.94-3.64 458.04-3.25 459.14-2.86 459.82-2.86L459.82-2.86Q460.38-2.86 461.09-2.89 461.8-2.93 462.53-3.04 463.26-3.15 463.97-3.37 464.68-3.59 465.23-3.97 465.78-4.35 466.11-4.92 466.44-5.49 466.44-6.3L466.44-6.3Q466.44-7.13 466.01-7.75 465.58-8.37 464.9-8.84 464.22-9.3 463.34-9.62 462.46-9.94 461.57-10.18 460.68-10.42 459.85-10.61 459.02-10.79 458.4-10.96L458.4-10.96Q457.28-11.28 456.04-11.61 454.79-11.94 453.57-12.37 452.35-12.79 451.24-13.38 450.13-13.96 449.29-14.78 448.44-15.6 447.94-16.71 447.44-17.82 447.44-19.31L447.44-19.31Q447.44-22.05 448.53-23.89 449.62-25.73 451.4-26.84 453.18-27.95 455.45-28.42 457.72-28.88 460.06-28.88L460.06-28.88Q461.68-28.88 463.46-28.55 465.24-28.22 466.93-27.58 468.61-26.93 470.07-26 471.54-25.07 472.52-23.88L472.52-23.88 467.71-19.92Q467.17-21.39 466.3-22.44 465.44-23.49 464.42-24.16 463.41-24.83 462.35-25.15 461.29-25.46 460.38-25.46L460.38-25.46Q459.5-25.46 458.4-25.39 457.31-25.32 456.34-24.98 455.38-24.63 454.71-23.94 454.03-23.24 454.03-22.02L454.03-22.02Q454.03-21.14 454.44-20.52 454.84-19.9 455.5-19.45 456.16-18.99 457-18.69 457.84-18.38 458.72-18.15 459.6-17.92 460.43-17.75 461.26-17.58 461.92-17.38L461.92-17.38Q463.04-17.07 464.3-16.74 465.56-16.41 466.78-15.98 468-15.55 469.13-14.98 470.27-14.4 471.12-13.57 471.98-12.74 472.49-11.63 473-10.52 473-9.01ZM484.99-13.38L484.99-13.38Q486.5-13.04 488.02-12.84 489.53-12.65 491.07-12.65L491.07-12.65Q492.68-12.65 494.06-12.95 495.44-13.26 496.45-13.98 497.46-14.7 498.05-15.89 498.64-17.09 498.64-18.87L498.64-18.87Q498.64-20.31 498.25-21.51 497.86-22.71 497.09-23.56 496.32-24.41 495.19-24.89 494.07-25.37 492.58-25.37L492.58-25.37Q491.19-25.37 490.08-24.85 488.97-24.34 488.13-23.47 487.28-22.61 486.69-21.46 486.09-20.31 485.7-19.07 485.31-17.82 485.14-16.55 484.96-15.28 484.96-14.16L484.96-14.16Q484.96-13.96 484.96-13.77 484.96-13.57 484.99-13.38ZM505.33-18.95L505.33-18.95Q505.33-17.21 504.76-15.86 504.2-14.5 503.24-13.48 502.27-12.45 501-11.74 499.74-11.04 498.29-10.58 496.85-10.13 495.33-9.94 493.8-9.74 492.36-9.74L492.36-9.74Q490.53-9.74 488.75-10 486.97-10.25 485.23-10.82L485.23-10.82Q485.5-9.2 486.09-7.75 486.67-6.3 487.65-5.21 488.63-4.13 490.06-3.49 491.48-2.86 493.44-2.86L493.44-2.86Q494.73-2.86 495.9-3.25 497.07-3.64 498.05-4.35 499.03-5.05 499.77-6.03 500.52-7.01 500.98-8.2L500.98-8.2 504.54-6.88Q503.74-4.96 502.34-3.55 500.93-2.15 499.16-1.23 497.39-0.32 495.4 0.12 493.41 0.56 491.46 0.56L491.46 0.56Q488.24 0.56 485.5-0.52 482.77-1.61 480.79-3.56 478.81-5.52 477.69-8.23 476.57-10.94 476.57-14.16L476.57-14.16Q476.57-17.38 477.69-20.09 478.81-22.8 480.79-24.76 482.77-26.71 485.5-27.8 488.24-28.88 491.46-28.88L491.46-28.88Q493.02-28.88 494.66-28.66 496.29-28.44 497.83-27.97 499.37-27.49 500.74-26.73 502.1-25.98 503.12-24.87 504.13-23.75 504.73-22.29 505.33-20.83 505.33-18.95Z" opacity="1" transform="matrix(1,0,0,1,0,0)" fill="#cb1106" class="slogan-text-1" data-fill-palette-color="secondary" id="text-1"></path></svg></g></svg></g></svg></g></svg></g><g><svg viewBox="0 0 228.61252836493765 228.61252836493765" height="228.61252836493765" width="228.61252836493765"><g><svg></svg></g><g id="icon-0"><svg viewBox="0 0 228.61252836493765 228.61252836493765" height="228.61252836493765" width="228.61252836493765"><g><path d="M0 114.306c0-63.13 51.177-114.306 114.306-114.306 63.13 0 114.306 51.177 114.307 114.306 0 63.13-51.177 114.306-114.307 114.307-63.13 0-114.306-51.177-114.306-114.307zM114.306 221.739c59.334 0 107.433-48.099 107.433-107.433 0-59.334-48.099-107.433-107.433-107.433-59.334 0-107.433 48.099-107.433 107.433 0 59.334 48.099 107.433 107.433 107.433z" data-fill-palette-color="accent" fill="#f64d08" stroke="transparent"></path></g><g transform="matrix(1,0,0,1,55.746577427150065,46.98174702427576)"><svg viewBox="0 0 117.11937351063752 134.64903431638612" height="134.64903431638612" width="117.11937351063752"><g><svg xmlns="http://www.w3.org/2000/svg" xmlns:xlink="http://www.w3.org/1999/xlink" xml:space="preserve" version="1.1" style="shape-rendering:geometricPrecision;text-rendering:geometricPrecision;image-rendering:optimizeQuality;" viewBox="9497.73 7177.465 31004.530000000002 35645.08500000001" x="0" y="0" fill-rule="evenodd" clip-rule="evenodd" height="134.64903431638612" width="117.11937351063752" class="icon-dxe-0" data-fill-palette-color="accent" id="dxe-0"><g fill="#f64d08" data-fill-palette-color="accent"><path class="" d="M30041.47 8688.94C30862.08 9509.55 31409.1 10603.73 31534.05 11822.89H38502.26C39603.28 11822.89 40502.26 12721.87 40502.26 13822.89V33322.89C40502.26 34164.79 40090.42 34560.09 39578.32 35071.63L32727.13 41915.24C32211.96 42429.84 31838.64 42822.55 30997.73 42822.55H11497.73C10396.71 42822.55 9497.73 41923.57 9497.73 40822.55V21322.55C9497.73 20442.6 9938.01 20058.27 10475.77 19521.12L17520.53 12484.13C17878.69 12066.91 18456.29 11822.89 19002.26 11822.89H21210.47C21335.42 10603.73 21882.44 9509.55 22703.05 8688.94 24718.35 6673.64 28026.17 6673.64 30041.47 8688.94M12085.49 19322.55H17252.26V19032.97C17254.26 18706.78 17750.21 18700.31 17752.26 19032.97V19322.55H30997.73C31365.99 19322.55 31711.69 19423.18 32008.67 19598.24L38653.98 12834.51C38604.47 12826.85 38553.8 12822.89 38502.26 12822.89H31540.82C31430.08 14070.36 30877.86 15190.95 30041.47 16027.35 28026.17 18042.65 24718.35 18042.65 22703.05 16027.35 21866.66 15190.95 21314.44 14070.36 21203.7 12822.89H19002.26C18757.25 12822.89 18525.6 12911.15 18342.06 13072.89L17607.73 13806.42C17690.42 13845.19 17751.62 13928.42 17752.26 14032.97V15032.97C17750.26 15359.16 17254.31 15365.63 17252.26 15032.97V14161.49zM32997.73 40235.56L38166.11 35072.89H37357.3C37031.11 35070.89 37024.64 34574.94 37357.3 34572.89H38357.3C38439.83 34573.4 38514.24 34612.17 38561.19 34678.25L38959.27 34280.61C39244.4 33995.8 39502.26 33794.25 39502.26 33322.89V13822.89C39502.26 13696.21 39478.24 13574.77 39434.55 13462.86L32715.88 20301.25C32894.72 20600.54 32997.73 20949.99 32997.73 21322.55V34572.89H33357.3C33683.49 34574.89 33689.96 35070.84 33357.3 35072.89H32997.73zM30997.73 20322.55H11497.73C10948.75 20322.55 10497.73 20773.57 10497.73 21322.55V40822.55C10497.73 41371.53 10948.75 41822.55 11497.73 41822.55H30997.73C31546.71 41822.55 31997.73 41371.53 31997.73 40822.55V21322.55C31997.73 20773.57 31546.71 20322.55 30997.73 20322.55M29334.43 9395.98C27707.56 7769.11 25036.96 7769.11 23410.09 9395.98 22652.04 10154.03 22183.17 11201.32 22183.17 12358.15 22183.17 13514.97 22652.05 14562.26 23410.09 15320.31 25036.96 16947.18 27707.56 16947.18 29334.43 15320.31 30966.87 13687.85 30965.53 11027.08 29334.43 9395.98M17752.26 16532.97C17750.21 16200.31 17254.26 16206.78 17252.26 16532.97V17532.97C17254.31 17865.63 17750.26 17859.16 17752.26 17532.97zM17752.26 21532.97C17750.21 21200.31 17254.26 21206.78 17252.26 21532.97V22532.97C17254.31 22865.63 17750.26 22859.16 17752.26 22532.97zM17752.26 24032.97C17750.21 23700.31 17254.26 23706.78 17252.26 24032.97V25032.97C17254.31 25365.63 17750.26 25359.16 17752.26 25032.97zM17752.26 26532.97C17750.21 26200.31 17254.26 26206.78 17252.26 26532.97V27532.97C17254.31 27865.63 17750.26 27859.16 17752.26 27532.97zM17752.26 29032.97C17750.21 28700.31 17254.26 28706.78 17252.26 29032.97V30032.97C17254.31 30365.63 17750.26 30359.16 17752.26 30032.97zM17752.26 31532.97C17750.21 31200.31 17254.26 31206.78 17252.26 31532.97V32532.97C17254.31 32865.63 17750.26 32859.16 17752.26 32532.97zM17889.79 33890.82C17735.69 33597.01 17296.97 33831.11 17446.43 34122 17626.61 34470.59 17916.92 34747.37 18272.57 34912.67 18572.05 35049.17 18780.75 34596.85 18481.91 34458.61 18226.49 34339.96 18019.1 34140.99 17889.79 33890.82M19857.3 34572.89C19524.64 34574.94 19531.11 35070.89 19857.3 35072.89H20857.3C21189.96 35070.84 21183.49 34574.89 20857.3 34572.89zM22357.3 34572.89C22024.64 34574.94 22031.11 35070.89 22357.3 35072.89H23357.3C23689.96 35070.84 23683.49 34574.89 23357.3 34572.89zM24857.3 34572.89C24524.64 34574.94 24531.11 35070.89 24857.3 35072.89H25857.3C26189.96 35070.84 26183.49 34574.89 25857.3 34572.89zM27357.3 34572.89C27024.64 34574.94 27031.11 35070.89 27357.3 35072.89H28357.3C28689.96 35070.84 28683.49 34574.89 28357.3 34572.89zM29857.3 34572.89C29524.64 34574.94 29531.11 35070.89 29857.3 35072.89H30857.3C31189.96 35070.84 31183.49 34574.89 30857.3 34572.89zM34857.3 34572.89C34524.64 34574.94 34531.11 35070.89 34857.3 35072.89H35857.3C36189.96 35070.84 36183.49 34574.89 35857.3 34572.89zM17489.08 35263.53C17724.99 35027.62 17367.27 34680.26 17136.68 34908.83L16427.29 35613.64C16191.38 35849.55 16549.1 36196.91 16779.69 35968.34zM11106.87 40899.75C10870.96 41135.66 11228.68 41483.02 11459.27 41254.45L12168.66 40549.63C12404.57 40313.72 12046.85 39966.36 11816.26 40194.93zM12880.35 39137.7C12644.44 39373.61 13002.16 39720.97 13232.75 39492.4L13942.14 38787.59C14178.05 38551.68 13820.33 38204.32 13589.74 38432.89zM14653.82 37375.67C14417.91 37611.58 14775.63 37958.94 15006.22 37730.37L15715.61 37025.56C15951.52 36789.65 15593.8 36442.29 15363.21 36670.86zM28211.49 10313.18C27967.73 10093.8 28301.71 9722.7 28545.47 9942.08 30772.52 11946.43 29308.71 15608.14 26372.26 15608.14 26043.42 15608.14 26043.42 15108.14 26372.26 15108.14 28856.72 15108.14 30096.85 12009.97 28211.49 10313.18" fill="#f64d08" fill-rule="nonzero" data-fill-palette-color="accent"></path></g></svg></g></svg></g></svg></g></svg></g></svg></g><defs></defs></svg><rect width="395.52" height="136.97651820746967" fill="none" stroke="none" visibility="hidden"></rect></g></svg></g></svg>